<svg width="192" height="44" viewBox="0 0 192 44" fill="none" xmlns="http://www.w3.org/2000/svg">
<path d="M22.162 43.0899C21.658 43.4697 20.8411 43.7041 19.966 43.7041C17.6585 43.7041 15.8882 41.9597 15.8882 39.6235C15.8882 37.2874 17.681 35.498 19.9541 35.498C20.7379 35.498 21.4434 35.6661 22.0375 36.001V37.5099C21.4553 37.1193 20.7711 36.9063 20.1 36.9063C18.5431 36.9063 17.4119 38.0472 17.4119 39.601C17.4119 41.2886 18.6557 42.2839 20.145 42.2839C20.8399 42.2839 21.5667 42.0378 22.1608 41.5798V43.0887L22.162 43.0899Z" fill="#A8AAAD"/>
<path d="M29.816 37.2767L30.9365 40.3289H28.6848L29.816 37.2767ZM29.0773 35.6329L26.0085 43.5703H27.5204L28.2591 41.6259H31.3729L32.1116 43.5703H33.6234L30.5547 35.6329H29.0773Z" fill="#A8AAAD"/>
<path d="M36.3044 35.6448V36.9631H38.5893V43.5703H40.068V36.9631H42.3529V35.6448H36.3044Z" fill="#A8AAAD"/>
<path d="M46.8587 35.6448V43.5703H52.0452V42.2733H48.3255V40.2164H51.2709V38.9312H48.3255V36.9418H51.91V35.6448H46.8587Z" fill="#A8AAAD"/>
<path d="M59.7763 39.3561C60.5945 39.3561 61.0759 38.8531 61.0759 38.1371C61.0759 37.4211 60.5945 36.93 59.7763 36.93H58.3427V39.3561H59.7763ZM56.8641 35.6448H59.8664C61.5241 35.6448 62.6102 36.6625 62.6102 38.1158C62.6102 39.1336 61.9379 40.0496 60.8968 40.3513L63.081 43.5715H61.3782L59.4182 40.62H58.3427V43.5715H56.8641V35.6448Z" fill="#A8AAAD"/>
<path d="M69.1544 35.6341H67.6757V43.5715H69.1544V35.6341Z" fill="#A8AAAD"/>
<path d="M79.6743 35.6329V40.9987L75.7211 35.6329H74.4547V43.5703H75.9333V38.2046L79.8866 43.5703H81.1411V35.6329H79.6743Z" fill="#A8AAAD"/>
<path d="M93.0852 42.9443C92.2788 43.4591 91.1476 43.7041 90.173 43.7041C87.6639 43.7041 85.973 41.9715 85.973 39.5892C85.973 37.2069 87.9438 35.498 90.2405 35.498C91.182 35.498 92.0334 35.6992 92.8397 36.1359V37.6554C92.0002 37.1193 91.1476 36.9063 90.2856 36.9063C88.7394 36.9063 87.4849 37.9797 87.4849 39.6567C87.4849 41.3336 88.5603 42.3064 90.2073 42.3064C90.6318 42.3064 91.1927 42.2283 91.7192 42.0603V40.4496H89.8481V39.22H93.0852V42.9443Z" fill="#A8AAAD"/>
<path d="M107.484 37.4673C107.484 37.0531 107.103 36.6957 106.577 36.6957C106.05 36.6957 105.659 37.0424 105.659 37.4779C105.659 37.9134 105.939 38.2152 106.354 38.6519C107.092 38.2046 107.484 37.9028 107.484 37.4673ZM106.051 40.1608C105.413 40.5407 105.032 40.8875 105.021 41.3798C105.01 42.0733 105.771 42.4307 106.511 42.4307C107.026 42.4307 107.474 42.2969 107.832 42.0614L106.051 40.1608ZM109.603 42.1064L110.969 43.5703H109.255L108.718 42.9999C108.101 43.4354 107.34 43.7041 106.489 43.7041C104.909 43.7041 103.577 42.8437 103.577 41.5029C103.577 40.5975 104.17 39.9371 105.222 39.2886C104.651 38.6626 104.293 38.1927 104.293 37.4886C104.293 36.4483 105.211 35.5098 106.578 35.5098C107.945 35.5098 108.83 36.4377 108.83 37.4554C108.83 38.2827 108.326 38.8188 107.183 39.5229L108.684 41.1324C108.964 40.5963 109.087 39.9466 109.02 39.2874H110.331C110.442 40.3383 110.162 41.3348 109.603 42.1064Z" fill="#A8AAAD"/>
<path d="M121.187 35.6448V43.5703H126.374V42.2733H122.655V40.2164H125.601V38.9312H122.655V36.9418H126.239V35.6448H121.187Z" fill="#A8AAAD"/>
<path d="M136.122 35.6329L133.937 41.6366L131.764 35.6329H130.252L133.22 43.5703H134.666L137.634 35.6329H136.122Z" fill="#A8AAAD"/>
<path d="M142.006 35.6448V43.5703H147.191V42.2733H143.472V40.2164H146.419V38.9312H143.472V36.9418H147.057V35.6448H142.006Z" fill="#A8AAAD"/>
<path d="M157.231 35.6329V40.9987L153.276 35.6329H152.011V43.5703H153.49V38.2046L157.443 43.5703H158.697V35.6329H157.231Z" fill="#A8AAAD"/>
<path d="M163.215 35.6448V36.9631H165.5V43.5703H166.979V36.9631H169.264V35.6448H163.215Z" fill="#A8AAAD"/>
<path d="M178.093 36.0246V37.4886C177.544 37.0969 176.782 36.8519 176.11 36.8519C175.371 36.8519 174.822 37.1537 174.822 37.7241C174.822 38.2495 175.281 38.5063 176.211 38.8862C177.354 39.3442 178.541 39.8365 178.541 41.2898C178.541 42.7431 177.387 43.6934 175.651 43.6934C174.699 43.6934 173.837 43.4141 173.288 43.0224V41.4567C173.87 41.9597 174.711 42.3502 175.562 42.3502C176.369 42.3502 176.973 41.9703 176.973 41.3324C176.973 40.7395 176.391 40.4721 175.394 40.0579C174.419 39.6555 173.3 39.1525 173.3 37.788C173.3 36.4235 174.398 35.4968 176.056 35.4968C176.85 35.4968 177.567 35.7087 178.094 36.0223" fill="#A8AAAD"/>
<path d="M14.2339 22.9056H0.108398L7.39127 14.0639C8.11655 13.1792 9.21999 11.7906 9.91424 10.7797C10.5135 9.89503 11.0177 8.9793 11.0177 7.74797C11.0177 5.97963 9.85121 4.33753 7.51732 4.33753C5.18343 4.33753 3.92291 6.16899 3.79686 8.15873H0.707628C0.801682 6.10587 1.65301 4.46377 2.47332 3.54805C3.2306 2.69544 4.74322 1.49518 7.39224 1.49518C11.87 1.49518 14.1719 4.55797 14.1719 7.84216C14.1719 9.57845 13.5096 11.0001 12.6583 12.2635C11.901 13.4006 10.9246 14.5688 9.66311 16.0526L6.38383 19.937H14.2349L14.2339 22.9056Z" fill="#231F20"/>
<path d="M29.9826 9.23275V16.0216H25.1897L29.9826 9.23275ZM33.0718 0.295898L19.5766 18.927H29.9816V22.9056H33.0718V18.927H35.3417V15.9585H33.0718V0.295898Z" fill="#231F20"/>
<path d="M68.4157 6.76912C66.0828 4.65314 63.907 4.4327 62.7085 4.4327C58.1367 4.4327 55.0465 7.81109 55.0465 12.4538C55.0465 17.0966 58.2628 20.3477 62.7395 20.3477C65.2625 20.3477 67.2173 19.0533 68.4157 17.9161V21.7364C66.3029 22.9998 64.096 23.3154 62.6455 23.3154C58.83 23.3154 56.434 21.5781 55.2046 20.4099C52.7446 18.1045 51.8312 15.4205 51.8312 12.4529C51.8312 8.56853 53.4389 5.88447 55.2046 4.21032C57.3804 2.15746 59.9024 1.46314 62.8035 1.46314C64.7273 1.46314 66.587 1.81078 68.4157 2.97899V6.76912Z" fill="#231F20"/>
<path d="M86.5914 14.7902L83.4702 7.65377L80.2229 14.7902H86.5914ZM87.8839 17.822H78.8974L76.5955 22.9056H73.1271L83.5962 0.612471L93.5601 22.9065H90.0917L87.8849 17.8229L87.8839 17.822Z" fill="#231F20"/>
<path d="M102.649 11.506H103.659C104.542 11.506 108.136 11.4109 108.136 8.06454C108.136 5.09595 105.33 4.81239 103.754 4.81239H102.65V11.507L102.649 11.506ZM103.186 1.8438C105.74 1.8438 107.379 2.1594 108.735 3.07513C111.037 4.62303 111.226 7.11677 111.226 8.03249C111.226 11.0642 109.365 13.2744 106.559 13.9056L113.117 22.9056H109.239L103.217 14.2853H102.649V22.9056H99.4331V1.8438H103.186Z" fill="#231F20"/>
<path d="M121.641 11.506H122.651C123.534 11.506 127.129 11.4109 127.129 8.06454C127.129 5.09595 124.322 4.81239 122.746 4.81239H121.642V11.507L121.641 11.506ZM122.178 1.8438C124.732 1.8438 126.371 2.1594 127.727 3.07513C130.029 4.62303 130.218 7.11677 130.218 8.03249C130.218 11.0642 128.357 13.2744 125.551 13.9056L132.11 22.9056H128.231L122.209 14.2853H121.641V22.9056H118.425V1.8438H122.178Z" fill="#231F20"/>
<path d="M154.485 12.3907C154.485 7.71689 151.268 4.43367 146.76 4.43367C142.251 4.43367 139.035 7.71786 139.035 12.3907C139.035 17.0635 142.251 20.3487 146.76 20.3487C151.268 20.3487 154.485 17.0645 154.485 12.3907ZM157.701 12.3907C157.701 18.5804 153.066 23.3163 146.76 23.3163C140.453 23.3163 135.818 18.5794 135.818 12.3907C135.818 6.20201 140.453 1.46508 146.76 1.46508C153.066 1.46508 157.701 6.20201 157.701 12.3907Z" fill="#231F20"/>
<path d="M169.398 4.87454V22.9056H166.181V4.87454H161.357V1.8438H174.221V4.87454H169.398Z" fill="#231F20"/>
<path d="M188.74 6.51664C188.551 6.04275 188.266 5.60091 187.793 5.19111C187.131 4.65411 186.438 4.4327 185.523 4.4327C183.569 4.4327 182.559 5.60091 182.559 6.95848C182.559 7.58968 182.78 8.69477 184.83 9.5163L186.942 10.3689C190.82 11.9479 191.892 14.1581 191.892 16.5586C191.892 20.5691 189.054 23.3163 185.113 23.3163C182.685 23.3163 181.235 22.4006 180.163 21.2003C179.028 19.937 178.524 18.5483 178.398 17.0956L181.583 16.4003C181.583 17.4423 181.961 18.4211 182.465 19.0844C183.064 19.8428 183.948 20.3477 185.208 20.3477C187.163 20.3477 188.677 18.927 188.677 16.8111C188.677 14.6951 187.037 13.7793 185.649 13.2113L183.632 12.3587C181.898 11.6323 179.344 10.1796 179.344 7.0216C179.344 4.18022 181.551 1.46411 185.492 1.46411C187.762 1.46411 189.056 2.31672 189.718 2.8848C190.285 3.39073 190.884 4.11613 191.326 5.00078L188.74 6.51664Z" fill="#231F20"/>
</svg>
